<?xml version="1.0" encoding="UTF-8"?>
<svg xmlns="http://www.w3.org/2000/svg" xmlns:xlink="http://www.w3.org/1999/xlink" width="283.46pt" height="55.31pt" viewBox="0 0 283.46 55.31" version="1.1">
<defs>
<clipPath id="clip1">
  <path d="M 236 0 L 283.460938 0 L 283.460938 43 L 236 43 Z M 236 0 "/>
</clipPath>
<clipPath id="clip2">
  <path d="M 186 8 L 234 8 L 234 55.308594 L 186 55.308594 Z M 186 8 "/>
</clipPath>
</defs>
<g id="surface1">
<path style=" stroke:none;fill-rule:nonzero;fill:rgb(0%,0%,0%);fill-opacity:1;" d="M 54.691406 42.148438 C 54.691406 42.148438 58.003906 25.730469 63.582031 18.414063 C 67.976563 12.652344 77.746094 5.910156 77.746094 5.910156 L 83.214844 11.773438 C 83.214844 11.773438 75.910156 17.085938 72.273438 21.539063 C 64.96875 30.476563 64.851563 42.148438 64.851563 42.148438 "/>
<path style=" stroke:none;fill-rule:nonzero;fill:rgb(0%,0%,0%);fill-opacity:1;" d="M 120.816406 41.464844 L 134.882813 0.0507813 L 143.476563 0.0507813 L 130.195313 41.464844 Z M 120.816406 41.464844 "/>
<path style=" stroke:none;fill-rule:nonzero;fill:rgb(87.5%,16.499329%,7.499695%);fill-opacity:1;" d="M 261.925781 17.238281 C 261.925781 17.238281 264.246094 17.238281 266.367188 17.578125 C 268.21875 17.871094 270.5625 19.015625 270.5625 19.015625 L 259.789063 24.761719 "/>
<path style=" stroke:none;fill-rule:nonzero;fill:rgb(0%,0%,0%);fill-opacity:1;" d="M 30.667969 34.042969 C 23.730469 34.042969 19.921875 31.402344 19.921875 27.300781 C 19.921875 19.683594 30.082031 16.460938 37.015625 16.460938 C 42.875 16.460938 46.585938 19.488281 46.585938 23.101563 C 46.585938 28.765625 38.578125 34.042969 30.667969 34.042969 M 37.308594 7.277344 C 20.3125 9.039063 14.257813 18.511719 10.9375 23.882813 C 6.683594 30.769531 0 54.355469 0 54.355469 L 10.546875 54.355469 C 10.546875 54.355469 14.34375 39.902344 15.429688 39.3125 C 16.507813 38.730469 21.679688 42.144531 28.367188 42.144531 C 46.878906 42.144531 58.855469 31.265625 57.523438 20.757813 C 56.546875 13.042969 50.398438 5.925781 37.308594 7.277344 "/>
<path style=" stroke:none;fill-rule:nonzero;fill:rgb(0%,0%,0%);fill-opacity:1;" d="M 112.515625 23.6875 C 110.558594 30.132813 102.84375 34.042969 96.105469 34.042969 C 90.734375 34.042969 86.59375 31.015625 86.339844 28.179688 C 85.753906 21.636719 94.996094 16.519531 101.964844 16.460938 C 106.75 16.417969 114.367188 17.570313 112.515625 23.6875 M 103.136719 8.253906 C 90.242188 8.238281 76.210938 19.796875 76.179688 28.179688 C 76.136719 40.777344 90.121094 41.382813 96.105469 41.464844 C 104.503906 41.578125 118.355469 36.632813 122.671875 23.6875 C 124.917969 16.949219 119.0625 8.277344 103.136719 8.253906 "/>
<path style=" stroke:none;fill-rule:nonzero;fill:rgb(0%,0%,0%);fill-opacity:1;" d="M 174.835938 24.078125 C 172.882813 30.523438 165.164063 34.429688 158.429688 34.429688 C 153.054688 34.429688 148.914063 31.40625 148.660156 28.570313 C 148.074219 22.027344 157.316406 16.910156 164.289063 16.851563 C 169.074219 16.808594 176.691406 17.960938 174.835938 24.078125 M 165.460938 8.644531 C 152.566406 8.628906 138.53125 20.1875 138.503906 28.570313 C 138.457031 41.167969 152.445313 41.773438 158.429688 41.855469 C 166.828125 41.96875 180.679688 37.023438 184.992188 24.078125 C 187.238281 17.339844 181.386719 8.667969 165.460938 8.644531 "/>
<g clip-path="url(#clip1)" clip-rule="nonzero">
<path style=" stroke:none;fill-rule:nonzero;fill:rgb(0%,0%,0%);fill-opacity:1;" d="M 272.476563 24.464844 C 270.519531 30.914063 262.804688 34.820313 256.066406 34.820313 C 250.695313 34.820313 246.554688 31.796875 246.300781 28.960938 C 245.714844 22.414063 254.957031 17.296875 261.925781 17.238281 C 266.710938 17.199219 274.328125 18.347656 272.476563 24.464844 M 269.835938 9.640625 L 272.761719 0.144531 C 272.542969 -0.0703125 264.828125 -0.0234375 264.488281 0.148438 L 260.671875 9.164063 C 260.671875 9.164063 237.140625 13.433594 236.144531 28.960938 C 235.335938 41.535156 250.082031 42.160156 256.066406 42.242188 C 264.464844 42.355469 277.988281 37.296875 282.632813 24.464844 C 287.441406 11.183594 269.835938 9.640625 269.835938 9.640625 "/>
</g>
<g clip-path="url(#clip2)" clip-rule="nonzero">
<path style=" stroke:none;fill-rule:nonzero;fill:rgb(0%,0%,0%);fill-opacity:1;" d="M 207.765625 34.113281 C 204.707031 34.113281 196.996094 33.601563 197.511719 27.449219 C 198.046875 20.988281 207.546875 16.761719 214.136719 16.800781 C 220.824219 16.839844 224.269531 20.488281 224.101563 23.566406 C 223.734375 30.304688 213.480469 34.113281 207.765625 34.113281 M 213.992188 8.253906 C 201.027344 8.644531 189.480469 17.257813 187.183594 28.179688 C 185.453125 36.382813 194.945313 40.703125 199.488281 41.464844 C 206.738281 42.683594 217.65625 39.3125 217.65625 39.3125 C 217.65625 39.3125 217.582031 42.246094 210.988281 46.34375 C 204.632813 50.300781 199.046875 49.425781 198.753906 50.449219 C 198.542969 51.191406 197.710938 54.164063 198.460938 54.992188 C 199.050781 55.636719 212.746094 56.382813 223.148438 45.394531 C 227.300781 41.007813 231.8125 30.160156 233.328125 23.199219 C 236.109375 10.453125 223.097656 7.980469 213.992188 8.253906 "/>
</g>
</g>
</svg>